<svg t="1682409643540" class="icon" viewBox="0 0 1024 1024" version="1.1" xmlns="http://www.w3.org/2000/svg" p-id="7558"
  width="800" height="800">
  <path
    d="M364.139 467.356l-129.577 0 196.037 196.027 196.031-196.028-126.795 0c7.117-273.11-241.053-303.527-395.959-160.226 105.161-58.064 265.624-67.828 260.262 160.226l0 0 0 0zM842.248 195.982l-422.941 0c21.716 11.218 41.306 25.716 58.435 43.297 22.44 23.035 47.287 58.51 62.303 110.875l297.058 0 0 471.308-637.788 0 0-471.308 85.143 0c-1.388-1.735-2.835-3.382-4.334-4.921-12.681-12.978-30.144-19.287-53.403-19.287-25.354 0-55.685 8-84.846 22.188l0 483.237c0 28.88 23.414 52.294 52.294 52.294l648.082 0c28.881 0 52.295-23.414 52.295-52.294l0-583.091c0.001-28.885-23.413-52.299-52.298-52.299l0 0 0 0zM842.248 195.982z"
    fill="currentColor" p-id="7559"></path>
</svg>
