<svg t="1682409720136" class="icon" viewBox="0 0 1024 1024" version="1.1" xmlns="http://www.w3.org/2000/svg" p-id="9526"
  width="800" height="800">
  <path
    d="M457.102222 713.130667a54.869333 54.869333 0 1 0 109.738667 0 54.869333 54.869333 0 0 0-109.738667 0z m82.289778-128a9.159111 9.159111 0 0 0 9.159111-9.130667V265.102222A9.159111 9.159111 0 0 0 539.392 256h-54.840889a9.159111 9.159111 0 0 0-9.159111 9.130667V576c0 5.034667 4.124444 9.130667 9.159111 9.130667h54.840889z m457.159111-214.840889h-67.783111c-2.986667 0-5.688889 1.365333-7.424 3.754666l-121.742222 167.793778-57.002667-78.648889a9.102222 9.102222 0 0 0-7.424-3.754666h-67.783111a9.187556 9.187556 0 0 0-7.424 14.506666l124.785778 172.231111a18.375111 18.375111 0 0 0 29.724444 0l189.496889-261.376a9.187556 9.187556 0 0 0-7.424-14.506666z m-50.289778 349.696h-73.386666a18.688 18.688 0 0 0-15.530667 8.590222 402.545778 402.545778 0 0 1-56.917333 71.082667A405.731556 405.731556 0 0 1 512.426667 918.755556 406.129778 406.129778 0 0 1 224.426667 799.658667a403.512889 403.512889 0 0 1-87.324445-129.365334A403.086222 403.086222 0 0 1 105.102222 512c0-54.869333 10.752-108.231111 32-158.293333a403.484444 403.484444 0 0 1 87.324445-129.365334A405.731556 405.731556 0 0 1 512.426667 105.244444c54.983111 0 108.344889 10.752 158.520889 31.886223a406.755556 406.755556 0 0 1 129.479111 87.210666c21.703111 21.703111 40.675556 45.511111 56.888889 71.111111a18.261333 18.261333 0 0 0 15.559111 8.533334h73.386666a9.187556 9.187556 0 0 0 8.220445-13.255111C874.012444 130.872889 709.347556 20.565333 518.485333 18.289778 245.560889 15.075556 18.830222 238.279111 18.261333 511.089778c-0.568889 273.038222 220.899556 494.648889 494.165334 494.648889 193.365333 0 360.675556-110.876444 441.941333-272.497778a9.159111 9.159111 0 0 0-8.106667-13.255111z"
    fill="currentColor" fill-opacity=".65" p-id="9527"></path>
</svg>
