<svg t="1682409502188" class="icon" viewBox="0 0 1024 1024" version="1.1" xmlns="http://www.w3.org/2000/svg" p-id="3804"
  width="800" height="800">
  <path
    d="M169.557333 500.394667l-0.085333-1.024a342.186667 342.186667 0 0 1 341.930667-329.898667c74.837333 0 143.616 24.576 199.936 65.365333l-52.906667 51.456 0.341333 0.256a37.290667 37.290667 0 0 0 1.877334 50.944c7.082667 7.082667 16.725333 11.093333 26.709333 11.093334H863.317333a37.717333 37.717333 0 0 0 37.717334-37.717334V134.912a37.717333 37.717333 0 0 0-72.704-13.994667l-46.506667 45.226667A435.626667 435.626667 0 0 0 511.317333 72.106667 439.296 439.296 0 0 0 74.154667 473.856a37.205333 37.205333 0 0 0-2.56 12.970667c0 1.621333 0.512 3.072 0.853333 4.522666a49.066667 49.066667 0 1 0 97.194667 9.045334z m781.653334 6.314666c0-1.877333-0.256-3.584-0.426667-5.376l-0.170667-1.962666a48.896 48.896 0 0 0-96.682666 0H853.333333c0 1.621333 0.085333 3.157333 0.256 4.693333 0 0.853333-0.256 1.706667-0.256 2.645333 0 2.133333 0.341333 4.096 0.597334 6.144a342.442667 342.442667 0 0 1-342.442667 341.589334c-75.093333 0-143.872-24.661333-200.192-65.706667l49.066667-48.64a35.669333 35.669333 0 0 0 12.8-27.050667 37.717333 37.717333 0 0 0-37.632-37.717333h-31.488l-0.853334-0.938667-1.024 0.938667H159.573333a37.717333 37.717333 0 0 0-37.717333 37.717333v175.957334c0 20.821333 16.896 37.717333 37.717333 37.717333 2.730667 0 5.12-1.024 7.68-1.536l0.170667 1.536 1.877333-1.962667a36.693333 36.693333 0 0 0 22.442667-17.493333l50.090667-49.664a434.090667 434.090667 0 0 0 269.653333 94.293333A439.893333 439.893333 0 0 0 951.296 512l-0.170667-3.584 0.170667-1.706667z"
    fill="currentColor" p-id="3805"></path>
</svg>
